<svg width="133" height="41" xmlns="http://www.w3.org/2000/svg" xmlns:svg="http://www.w3.org/2000/svg">
 <g class="layer">
  <title>Layer 1</title>
  <path d="m16.86,7.43c-3.1,-0.03 -6.13,0.89 -8.7,2.62l0,-10.05l-8.16,0l0,23.26c0,9.74 6.94,16.69 16.33,16.69c2.14,0 4.27,-0.42 6.25,-1.24c1.98,-0.82 3.79,-2.02 5.3,-3.54c1.52,-1.52 2.72,-3.33 3.54,-5.32c0.82,-1.98 1.24,-4.11 1.24,-6.26c0.03,-2.11 -0.35,-4.2 -1.13,-6.15c-0.78,-1.95 -1.94,-3.73 -3.41,-5.24c-1.46,-1.5 -3.22,-2.69 -5.15,-3.51c-1.93,-0.82 -4.01,-1.25 -6.11,-1.26zm-0.3,24.39c-2.13,-0.03 -4.16,-0.89 -5.66,-2.41c-1.49,-1.52 -2.33,-3.56 -2.33,-5.69c0,-2.13 0.84,-4.18 2.33,-5.7c1.5,-1.51 3.53,-2.38 5.66,-2.4c2.12,0.02 4.15,0.89 5.65,2.4c1.49,1.52 2.33,3.57 2.33,5.7c0,2.13 -0.84,4.17 -2.33,5.69c-1.5,1.52 -3.53,2.38 -5.65,2.41z" fill="#4BDE95"/>
  <path d="m50.76,40.2c3.86,0.05 7.6,-1.28 10.55,-3.77c2.95,-2.48 4.91,-5.95 5.51,-9.76l-8.32,0c-0.49,1.65 -1.52,3.08 -2.92,4.08c-1.41,1 -3.1,1.5 -4.82,1.43c-1.07,0.02 -2.13,-0.18 -3.12,-0.59c-0.99,-0.41 -1.89,-1.01 -2.64,-1.78c-0.75,-0.76 -1.33,-1.67 -1.72,-2.68c-0.38,-1 -0.56,-2.06 -0.52,-3.14c0,-4.6 2.99,-8.23 7.95,-8.23c1.08,-0.01 2.14,0.34 2.99,1.01l-6.51,6.31l5.07,5.14l12.54,-12.41c-1.37,-2.45 -3.37,-4.5 -5.79,-5.93c-2.42,-1.43 -5.17,-2.19 -7.98,-2.2c-2.16,-0.03 -4.31,0.36 -6.32,1.17c-2,0.8 -3.83,2 -5.37,3.51c-1.55,1.52 -2.78,3.33 -3.62,5.33c-0.84,1.99 -1.28,4.14 -1.28,6.3c-0.01,2.14 0.41,4.27 1.23,6.25c0.82,1.98 2.03,3.77 3.54,5.28c1.52,1.51 3.33,2.7 5.31,3.5c1.98,0.8 4.11,1.2 6.24,1.18" fill="#4BDE95"/>
  <path d="m75.02,40.5l10.04,-10.32l10.08,10.32l6.51,-6.36l-10.24,-10.11l9.87,-9.95l-6.3,-6.2l-9.66,10l-9.82,-10l-6.51,6.36l9.88,9.73l-10.14,10.32l6.29,6.21z" fill="#4BDE95"/>
  <path d="m117.53,40.45c8,0 13.98,-3.53 13.98,-9.68c0,-5.83 -4.27,-8.03 -11.15,-9.9c-4.38,-1.17 -6.62,-1.55 -6.62,-3.58c0,-1.44 1.28,-2.3 3.57,-2.3c0.5,-0.05 1.01,-0.01 1.49,0.15c0.48,0.15 0.93,0.39 1.31,0.73c0.38,0.33 0.69,0.73 0.91,1.19c0.21,0.46 0.33,0.95 0.35,1.46l9.28,-0.06c-0.53,-6.36 -5.65,-10.53 -13.55,-10.53c-7.31,0 -13.18,3.48 -13.18,9.73c0,4.6 2.99,7.81 9.82,9.52c4.69,1.18 7.63,1.82 7.63,3.85c0,1.71 -1.34,2.41 -4.06,2.41c-2.88,0 -4.59,-1.61 -4.91,-3.91l-9.33,0c0.37,6.74 6.35,10.91 14.46,10.91" fill="#4BDE95"/>
 </g>
</svg>